PathFileType	4	(X/Y/Z) abd_2kg_1.trc																										
DataRate	CameraRate	NumFrames	NumMarkers	Units	OrigDataRate	OrigDataStartFrame	OrigNumFrames																					
100	100	49	9	mm	100	519	829																					
Frame#	Time	gu			centelbow			EpL			centpxt8			centijc7			ij			ts			aa			ai		
		X1	Y1	Z1	X2	Y2	Z2	X3	Y3	Z3	X4	Y4	Z4	X5	Y5	Z5	X6	Y6	Z6	X7	Y7	Z7	X8	Y8	Z8	X9	Y9	Z9  
518	5.18	-110.077	59.431	122.948	-83.14	86.454	366.933	-95.597	115.601	361.038	-46.816	-153.158	-8.669	-46.816	31.938	-8.669	0	0	0	-136.572	0.159	24.463	-150.149	67.685	121.832	-134.497	-89.87	93.572
519	5.19	-109.729	59.461	123.371	-83.077	82.348	367.809	-95.466	111.614	362.386	-46.816	-153.158	-8.669	-46.816	31.938	-8.669	0	0	0	-136.376	0.892	24.505	-149.817	67.69	122.394	-133.861	-89.62	92.964
520	5.2	-109.437	59.854	124.086	-83.315	78.515	368.941	-95.613	107.903	363.986	-46.816	-153.158	-8.669	-46.816	31.938	-8.669	0	0	0	-136.091	1.657	24.58	-149.472	67.807	122.916	-133.329	-89.288	92.456
521	5.21	-109.245	60.239	124.855	-83.58	74.661	370.044	-95.758	104.174	365.561	-46.816	-153.158	-8.669	-46.816	31.938	-8.669	0	0	0	-136.03	2.195	24.537	-149.369	67.734	123.286	-133.148	-89.161	91.853
522	5.22	-109.123	60.273	125.391	-83.593	70.542	370.803	-95.63	100.181	366.797	-46.816	-153.158	-8.669	-46.816	31.938	-8.669	0	0	0	-136.212	2.338	24.494	-149.459	67.218	123.69	-133.231	-89.461	91.2
523	5.23	-109.013	59.975	125.759	-83.335	66.181	371.292	-95.219	95.943	367.766	-46.816	-153.158	-8.669	-46.816	31.938	-8.669	0	0	0	-136.436	2.408	24.512	-149.496	66.492	124.249	-133.251	-89.915	90.482
524	5.24	-108.796	59.528	126.243	-82.934	61.655	371.826	-94.654	91.535	368.786	-46.816	-153.158	-8.669	-46.816	31.938	-8.669	0	0	0	-136.566	2.982	24.461	-149.338	66.099	124.85	-133.009	-89.957	89.539
525	5.25	-108.375	59.118	126.955	-82.555	57.058	372.543	-94.097	87.053	369.992	-46.816	-153.158	-8.669	-46.816	31.938	-8.669	0	0	0	-136.609	4.244	24.268	-149.024	66.315	125.352	-132.586	-89.346	88.38
526	5.26	-107.823	58.889	127.846	-82.436	52.548	373.406	-93.772	82.659	371.34	-46.816	-153.158	-8.669	-46.816	31.938	-8.669	0	0	0	-136.638	5.785	24.049	-148.693	66.867	125.777	-132.235	-88.412	87.241
527	5.27	-107.287	58.647	128.95	-82.728	47.991	374.445	-93.824	78.22	372.85	-46.816	-153.158	-8.669	-46.816	31.938	-8.669	0	0	0	-136.692	6.971	23.913	-148.441	67.163	126.206	-132.161	-87.779	86.264
528	5.28	-106.834	57.827	130.278	-83.307	42.859	375.649	-94.124	73.21	374.518	-46.816	-153.158	-8.669	-46.816	31.938	-8.669	0	0	0	-136.712	7.395	23.914	-148.227	66.738	126.727	-132.354	-87.894	85.449
529	5.29	-106.473	56.24	131.584	-83.847	36.967	376.739	-94.376	67.432	376.083	-46.816	-153.158	-8.669	-46.816	31.938	-8.669	0	0	0	-136.595	7.174	24.054	-147.949	65.647	127.383	-132.606	-88.671	84.746
530	5.3	-106.273	54.551	132.503	-84.136	30.976	377.326	-94.432	61.527	377.171	-46.816	-153.158	-8.669	-46.816	31.938	-8.669	0	0	0	-136.37	6.879	24.222	-147.606	64.425	128.082	-132.73	-89.538	84.023
531	5.31	-106.37	53.536	132.937	-84.291	25.694	377.317	-94.457	56.287	377.686	-46.816	-153.158	-8.669	-46.816	31.938	-8.669	0	0	0	-136.233	7.05	24.293	-147.348	63.615	128.704	-132.735	-89.942	83.165
532	5.32	-106.692	53.35	133.05	-84.446	21.315	376.901	-94.573	51.91	377.8	-46.816	-153.158	-8.669	-46.816	31.938	-8.669	0	0	0	-136.257	7.73	24.235	-147.215	63.276	129.208	-132.657	-89.83	82.155
533	5.33	-106.883	53.67	133.02	-84.486	17.487	376.276	-94.606	48.064	377.702	-46.816	-153.158	-8.669	-46.816	31.938	-8.669	0	0	0	-136.262	8.549	24.04	-147.005	63.054	129.579	-132.407	-89.568	80.994
534	5.34	-106.747	53.93	133.172	-84.431	13.513	375.768	-94.5	44.078	377.721	-46.816	-153.158	-8.669	-46.816	31.938	-8.669	0	0	0	-136.192	9.288	23.688	-146.672	62.756	129.783	-132.071	-89.373	79.676
535	5.35	-106.42	53.465	134.03	-84.589	8.605	375.888	-94.525	39.175	378.378	-46.816	-153.158	-8.669	-46.816	31.938	-8.669	0	0	0	-136.226	9.995	23.321	-146.457	62.464	129.938	-131.963	-89.187	78.371
536	5.36	-106.023	52.004	135.698	-85.034	2.485	376.72	-94.773	33.068	379.76	-46.816	-153.158	-8.669	-46.816	31.938	-8.669	0	0	0	-136.28	10.592	23.295	-146.353	62.106	130.392	-132.113	-89.091	77.439
537	5.37	-105.629	50.043	137.457	-85.444	-4.225	377.523	-94.996	26.355	381.132	-46.816	-153.158	-8.669	-46.816	31.938	-8.669	0	0	0	-136.054	10.878	23.723	-146.042	61.43	131.285	-132.222	-89.313	76.946
538	5.38	-105.479	48.46	138.467	-85.599	-10.457	377.46	-95.037	20.085	381.648	-46.816	-153.158	-8.669	-46.816	31.938	-8.669	0	0	0	-135.641	10.927	24.195	-145.519	60.463	132.238	-132.201	-89.791	76.44
539	5.39	-105.692	47.727	138.654	-85.542	-15.598	376.494	-94.95	14.869	381.257	-46.816	-153.158	-8.669	-46.816	31.938	-8.669	0	0	0	-135.471	11.09	24.284	-145.156	59.568	132.823	-132.254	-90.154	75.518
540	5.4	-106.049	47.668	138.671	-85.427	-19.848	375.316	-94.84	10.525	380.635	-46.816	-153.158	-8.669	-46.816	31.938	-8.669	0	0	0	-135.752	11.655	24.026	-145.198	59.077	133.052	-132.505	-90.087	74.262
541	5.41	-106.313	47.753	139.182	-85.466	-23.933	374.577	-94.856	6.347	380.441	-46.816	-153.158	-8.669	-46.816	31.938	-8.669	0	0	0	-136.287	12.605	23.752	-145.509	58.972	133.251	-132.874	-89.613	73
542	5.42	-106.442	47.362	140.295	-85.8	-28.698	374.331	-95.097	1.497	380.751	-46.816	-153.158	-8.669	-46.816	31.938	-8.669	0	0	0	-136.643	13.604	23.675	-145.674	58.872	133.648	-133.166	-89.103	71.89
543	5.43	-106.502	46.142	141.611	-86.359	-34.573	374.127	-95.497	-4.459	381.131	-46.816	-153.158	-8.669	-46.816	31.938	-8.669	0	0	0	-136.549	14.349	23.697	-145.425	58.433	134.163	-133.28	-88.887	70.786
544	5.44	-106.599	44.384	142.667	-86.987	-41.093	373.521	-95.955	-11.074	381.126	-46.816	-153.158	-8.669	-46.816	31.938	-8.669	0	0	0	-136.199	14.814	23.654	-144.975	57.632	134.624	-133.386	-88.981	69.527
545	5.45	-106.817	42.852	143.271	-87.545	-47.144	372.429	-96.389	-17.241	380.614	-46.816	-153.158	-8.669	-46.816	31.938	-8.669	0	0	0	-135.89	15.071	23.623	-144.652	56.587	135.088	-133.646	-89.282	68.244
546	5.46	-107.172	42.041	143.572	-87.978	-52.003	371.106	-96.763	-22.231	379.818	-46.816	-153.158	-8.669	-46.816	31.938	-8.669	0	0	0	-135.607	15.223	23.763	-144.42	55.45	135.696	-133.892	-89.661	67.145
547	5.47	-107.635	41.617	144.001	-88.454	-56.146	369.963	-97.215	-26.514	379.162	-46.816	-153.158	-8.669	-46.816	31.938	-8.669	0	0	0	-135.322	15.59	23.938	-144.17	54.547	136.316	-133.979	-89.793	66.107
548	5.48	-108.118	40.91	144.895	-89.172	-60.567	369.233	-97.893	-31.077	378.914	-46.816	-153.158	-8.669	-46.816	31.938	-8.669	0	0	0	-135.267	16.447	23.924	-144.096	54.148	136.732	-134.127	-89.408	64.901
549	5.49	-108.533	39.828	146.054	-90.029	-65.488	368.654	-98.676	-36.142	378.826	-46.816	-153.158	-8.669	-46.816	31.938	-8.669	0	0	0	-135.541	17.547	23.831	-144.329	54.04	137.038	-134.559	-88.746	63.662
550	5.5	-108.859	38.717	147.124	-90.774	-70.467	367.887	-99.334	-41.274	378.559	-46.816	-153.158	-8.669	-46.816	31.938	-8.669	0	0	0	-135.847	18.444	23.919	-144.625	53.811	137.483	-135.114	-88.247	62.676
551	5.51	-109.01	37.651	148.225	-91.266	-75.326	367.099	-99.752	-46.296	378.266	-46.816	-153.158	-8.669	-46.816	31.938	-8.669	0	0	0	-135.896	18.961	24.31	-144.721	53.262	138.197	-135.533	-88.099	62.041
552	5.52	-108.904	36.453	149.481	-91.468	-80.217	366.434	-99.89	-51.36	378.084	-46.816	-153.158	-8.669	-46.816	31.938	-8.669	0	0	0	-135.729	19.023	24.974	-144.663	52.273	139.165	-135.825	-88.391	61.688
553	5.53	-108.732	35.1	150.435	-91.452	-85.178	365.421	-99.807	-56.499	377.55	-46.816	-153.158	-8.669	-46.816	31.938	-8.669	0	0	0	-135.551	18.692	25.597	-144.593	50.88	140.083	-136.099	-89.067	61.281
554	5.54	-108.839	33.833	150.536	-91.435	-89.96	363.508	-99.717	-61.467	376.116	-46.816	-153.158	-8.669	-46.816	31.938	-8.669	0	0	0	-135.452	18.402	25.72	-144.511	49.482	140.51	-136.299	-89.702	60.339
555	5.55	-109.223	32.993	149.889	-91.541	-94.174	360.84	-99.766	-65.875	373.914	-46.816	-153.158	-8.669	-46.816	31.938	-8.669	0	0	0	-135.358	18.515	25.329	-144.333	48.412	140.439	-136.289	-89.942	58.826
556	5.56	-109.398	32.64	149.289	-91.672	-97.741	358.264	-99.876	-69.641	371.773	-46.816	-153.158	-8.669	-46.816	31.938	-8.669	0	0	0	-135.132	18.912	24.921	-143.996	47.59	140.35	-136.014	-89.892	57.271
557	5.57	-108.994	32.42	149.54	-91.769	-101.093	356.572	-99.977	-73.191	370.485	-46.816	-153.158	-8.669	-46.816	31.938	-8.669	0	0	0	-134.674	19.451	24.891	-143.459	46.975	140.607	-135.437	-89.67	56.161
558	5.58	-108.221	31.963	150.751	-91.981	-104.724	355.781	-100.173	-77.019	370.091	-46.816	-153.158	-8.669	-46.816	31.938	-8.669	0	0	0	-134.06	20.285	25.249	-142.806	46.821	141.198	-134.633	-89.096	55.6
559	5.59	-107.537	31.087	152.331	-92.414	-108.899	355.209	-100.531	-81.39	369.935	-46.816	-153.158	-8.669	-46.816	31.938	-8.669	0	0	0	-133.531	21.427	25.803	-142.239	47.179	141.931	-133.908	-88.153	55.427
560	5.6	-107.191	29.78	153.521	-92.965	-113.624	354.063	-100.946	-86.32	369.237	-46.816	-153.158	-8.669	-46.816	31.938	-8.669	0	0	0	-133.242	22.508	26.301	-141.851	47.657	142.568	-133.581	-87.224	55.358
561	5.61	-107.155	28.386	153.998	-93.434	-118.494	352.045	-101.264	-91.415	367.691	-46.816	-153.158	-8.669	-46.816	31.938	-8.669	0	0	0	-133.164	23.201	26.561	-141.598	47.838	142.951	-133.73	-86.662	55.116
562	5.62	-107.192	27.433	154.089	-93.654	-122.906	349.535	-101.381	-96.079	365.66	-46.816	-153.158	-8.669	-46.816	31.938	-8.669	0	0	0	-133.213	23.506	26.653	-141.438	47.578	143.176	-134.23	-86.5	54.642
563	5.63	-107.129	26.998	154.301	-93.699	-126.681	347.14	-101.394	-100.126	363.724	-46.816	-153.158	-8.669	-46.816	31.938	-8.669	0	0	0	-133.303	23.47	26.883	-141.353	46.818	143.565	-134.894	-86.71	54.147
564	5.64	-107.057	26.697	154.866	-93.907	-130.114	345.187	-101.605	-103.829	362.194	-46.816	-153.158	-8.669	-46.816	31.938	-8.669	0	0	0	-133.341	23.022	27.455	-141.268	45.51	144.315	-135.521	-87.356	53.867
565	5.65	-107.063	26.234	155.753	-94.479	-133.542	343.629	-102.164	-107.513	361.032	-46.816	-153.158	-8.669	-46.816	31.938	-8.669	0	0	0	-133.248	22.371	28.105	-141.06	43.997	145.136	-135.879	-88.195	53.673
566	5.66	-107.043	25.485	156.754	-95.289	-137.25	342.127	-102.905	-111.469	359.924	-46.816	-153.158	-8.669	-46.816	31.938	-8.669	0	0	0	-133.093	22.214	28.315	-140.751	43.111	145.488	-135.884	-88.508	53.184
